<svg id="Ebene_1" data-name="Ebene 1" xmlns="http://www.w3.org/2000/svg" viewBox="0 0 80 160"><defs><style>.cls-1{fill:#fff;}</style></defs><path class="cls-1" d="M73,36H7a7,7,0,0,0-7,7V153a7,7,0,0,0,7,7H73a7,7,0,0,0,7-7V43A7,7,0,0,0,73,36ZM36,124H17V105H36Zm0-25H17V80H36Zm0-25H17V55H36Zm25,50H42V105H61Zm0-25H42V80H61Zm0-25H42V55H61Z" transform="translate(0 0)"/><path class="cls-1" d="M27.72,27.14a20.67,20.67,0,0,1,5.75-4.09,14.27,14.27,0,0,1,12.69.18,21.58,21.58,0,0,1,6.06,4.61,2,2,0,1,0,2.91-2.75,25.81,25.81,0,0,0-7.2-5.45,18.78,18.78,0,0,0-8.3-2,18.48,18.48,0,0,0-7.84,1.77,24.66,24.66,0,0,0-6.88,4.87,2,2,0,0,0,2.81,2.85Z" transform="translate(0 0)"/><path class="cls-1" d="M12.58,14.78C20.56,7.86,29.62,4,39.22,4,49.43,4,59,8.36,67.35,16.14a2,2,0,0,0,2.73-2.93C61.2,4.9,50.6,0,39.22,0,28.52,0,18.5,4.33,10,11.77a2,2,0,1,0,2.62,3Z" transform="translate(0 0)"/></svg>