<svg id="Ebene_1" data-name="Ebene 1" xmlns="http://www.w3.org/2000/svg" viewBox="0 0 80 160"><defs><style>.cls-1{fill:#1d1d1b;}.cls-2{fill:none;stroke:#000;stroke-linecap:round;stroke-linejoin:round;stroke-width:4px;}</style></defs><path class="cls-1" d="M73,36H7a7,7,0,0,0-7,7V153a7,7,0,0,0,7,7H73a7,7,0,0,0,7-7V43A7,7,0,0,0,73,36ZM36,124H17V105H36Zm0-25H17V80H36Zm0-25H17V55H36Zm25,50H42V105H61Zm0-25H42V80H61Zm0-25H42V55H61Z"/><path class="cls-2" d="M26.32,25.71c3.93-3.86,8.47-6.06,13.31-6.06,5.14,0,9.95,2.49,14,6.82"/><path class="cls-2" d="M11.27,13.28C19.53,6.1,29.07,2,39.22,2,50,2,60.11,6.63,68.72,14.67"/></svg>