<?xml version="1.0" encoding="UTF-8" standalone="no"?>
<svg
   inkscape:version="1.3.2 (091e20e, 2023-11-25)"
   sodipodi:docname="logo.svg"
   id="svg8"
   version="1.1"
   viewBox="0 0 14.816666 14.816666"
   height="14.816667mm"
   width="14.816667mm"
   xml:space="preserve"
   xmlns:inkscape="http://www.inkscape.org/namespaces/inkscape"
   xmlns:sodipodi="http://sodipodi.sourceforge.net/DTD/sodipodi-0.dtd"
   xmlns="http://www.w3.org/2000/svg"
   xmlns:svg="http://www.w3.org/2000/svg"
   xmlns:rdf="http://www.w3.org/1999/02/22-rdf-syntax-ns#"
   xmlns:cc="http://creativecommons.org/ns#"
   xmlns:dc="http://purl.org/dc/elements/1.1/"><defs
     id="defs2" /><sodipodi:namedview
     fit-margin-bottom="0"
     fit-margin-right="0"
     fit-margin-left="0"
     fit-margin-top="0"
     inkscape:window-maximized="1"
     inkscape:window-y="38"
     inkscape:window-x="0"
     inkscape:window-height="981"
     inkscape:window-width="1728"
     inkscape:snap-center="true"
     inkscape:snap-object-midpoints="true"
     inkscape:snap-bbox-midpoints="true"
     inkscape:snap-bbox="true"
     showgrid="false"
     inkscape:document-rotation="0"
     inkscape:current-layer="layer1"
     inkscape:document-units="px"
     inkscape:cy="19.101659"
     inkscape:cx="24.03112"
     inkscape:zoom="8.1144783"
     inkscape:pageshadow="2"
     inkscape:pageopacity="0.0"
     borderopacity="1.0"
     bordercolor="#666666"
     pagecolor="#ffffff"
     id="base"
     inkscape:showpageshadow="2"
     inkscape:pagecheckerboard="0"
     inkscape:deskcolor="#d1d1d1" /><metadata
     id="metadata5"><rdf:RDF><cc:Work
         rdf:about=""><dc:format>image/svg+xml</dc:format><dc:type
           rdf:resource="http://purl.org/dc/dcmitype/StillImage" /><dc:title /></cc:Work></rdf:RDF></metadata><g
     transform="translate(-20.705894,-42.15797)"
     id="layer1"
     inkscape:groupmode="layer"
     inkscape:label="Layer 1"><g
       id="g20"
       transform="matrix(0.05970002,0,0,0.05970002,19.946243,46.742907)"><g
         id="g19"
         style="fill:#ff0000;fill-opacity:1"><rect
           style="fill:#ff0000;fill-opacity:1;stroke-width:0.205542"
           id="rect18"
           width="79.334618"
           height="22.229021"
           x="122.65279"
           y="113.06089" /><path
           d="m 75.965154,61.245756 c -0.95657,-0.752437 -1.23406,-1.563205 -0.92193,-2.693658 0.46461,-1.68268 2.61989,-2.342388 4.02969,-1.233444 0.89207,0.701706 1.06621,1.326352 0.72404,2.597088 -0.48641,1.806398 -2.38736,2.466214 -3.8318,1.330014 z M 195.4086,61.888063 c -0.21829,-0.07943 -0.7243,-0.44949 -1.12448,-0.822363 -1.03468,-0.964066 -1.01531,-2.448618 0.0458,-3.509717 0.84521,-0.845218 1.88062,-0.999428 3.07045,-0.457303 0.71078,0.323855 1.44781,1.442496 1.44781,2.197447 0,0.853832 -0.85005,2.034903 -1.72886,2.402093 -0.95892,0.400663 -1.09105,0.415325 -1.71072,0.189843 z M 134.97483,48.824786 c -0.77907,-0.92587 -0.86308,-1.778241 -0.28537,-2.895412 0.48958,-0.946744 1.14024,-1.31762 2.31162,-1.31762 1.86767,0 2.97553,2.357872 1.86817,3.976024 -0.63385,0.926209 -0.86792,1.042442 -2.10849,1.047007 -0.90719,0.0033 -1.22151,-0.139219 -1.78593,-0.809999 z M 105.8093,57.31398 c -1.44893,-0.584714 -1.94795,-3.117137 -0.82206,-4.171815 1.28535,-1.204064 2.73176,-1.255633 3.96309,-0.141297 1.2225,1.106347 0.65244,3.510838 -0.99561,4.199436 -1.01384,0.423609 -1.33521,0.440638 -2.14542,0.113676 z m 59.7305,-0.09372 c -1.50487,-0.865377 -1.7827,-2.857745 -0.58536,-4.197795 0.63445,-0.710079 0.95853,-0.858057 1.87916,-0.858057 0.92063,0 1.2447,0.147978 1.87916,0.858057 1.02077,1.142443 1.03476,2.396057 0.0391,3.500556 -0.85077,0.94373 -2.25377,1.248283 -3.21203,0.697239 z"
           style="fill:#ff0000;fill-opacity:1"
           id="path1-1" /></g><g
         id="g18"
         style="fill:#6dd0d9;fill-opacity:1"><path
           style="fill:#6dd0d9;fill-opacity:1;stroke-width:0.264583"
           d="m 135.89324,76.134096 -10.22046,9.115543 v 14.916351 l 18.50732,1.10491 2.62417,-3.176627 0.27624,-13.258976 -7.32006,-7.181945 z"
           id="path2" /><path
           style="fill:#6dd0d9;fill-opacity:1;stroke-width:0.264583"
           d="m 69.578219,-21.088569 -7.666246,8.384957 3.833122,7.9058188 9.103669,5.51011433 9.582811,-8.86409953 1.197851,-6.4683956 -6.947538,-4.791403 z"
           id="path3" /><path
           style="fill:#6dd0d9;fill-opacity:1;stroke-width:0.264583"
           d="m 82.035871,-39.056335 4.551836,10.30152 9.103666,7.426676 5.510117,-1.676992 5.27055,-5.030976 -4.55184,-12.93679 -11.499371,-5.749687 z"
           id="path4" /><path
           style="fill:#6dd0d9;fill-opacity:1;stroke-width:0.264583"
           d="m 135.22046,-57.742813 -7.66625,9.582809 9.34324,7.426676 10.54109,-8.145388 -4.7914,-6.228826 z"
           id="path5" /><path
           style="fill:#6dd0d9;fill-opacity:1;stroke-width:0.264583"
           d="m 176.42654,-46.243442 -6.70797,8.864097 -2.15613,9.343238 8.8641,8.62453 10.06195,-9.582811 4.55183,-8.145388 -6.70796,-8.864096 z"
           id="path6" /><path
           style="fill:#6dd0d9;fill-opacity:1;stroke-width:0.264583"
           d="m 198.22743,-22.04685 -10.78066,9.103669 2.63527,5.5101141 11.02023,8.8640995 9.34324,-7.1871069 0.71871,-9.1036687 -7.90582,-6.228826 z"
           id="path7" /><path
           style="fill:#6dd0d9;fill-opacity:1;stroke-width:0.264583"
           d="m 115.19392,72.873892 -4.24172,4.38799 4.68052,3.217857 4.09546,-2.632792 -0.73133,-3.510391 z"
           id="path8" /><path
           style="fill:#6dd0d9;fill-opacity:1;stroke-width:0.264583"
           d="m 132.30708,57.369665 3.65666,6.874516 5.55812,-4.534255 -3.21786,-5.55812 z"
           id="path9" /><path
           style="fill:#6dd0d9;fill-opacity:1;stroke-width:0.264583"
           d="m 156.44102,72.873892 -2.04773,5.850652 6.87451,1.316397 1.46267,-4.38799 z"
           id="path10" /><path
           style="fill:#6dd0d9;fill-opacity:1;stroke-width:0.264583"
           d="m 89.012253,18.755363 2.925326,7.605847 5.55812,-6.581983 -9.214775,-1.462663 z"
           id="path11" /><path
           style="fill:#6dd0d9;fill-opacity:1;stroke-width:0.264583"
           d="M 89.597318,-0.99058739 V 8.3704551 L 98.66583,4.421266 94.277842,-1.2831186 Z"
           id="path12" /><path
           style="fill:#6dd0d9;fill-opacity:1;stroke-width:0.264583"
           d="m 111.8298,-20.590272 -0.4388,8.190913 7.60585,1.023866 2.19399,-7.020785 -9.94611,-2.632792 z"
           id="path13" /><path
           style="fill:#6dd0d9;fill-opacity:1;stroke-width:0.264583"
           d="m 156.87982,-20.297738 -1.60893,9.068509 9.65357,-2.779059 -1.75519,-4.241723 z"
           id="path14" /><path
           style="fill:#6dd0d9;fill-opacity:1;stroke-width:0.264583"
           d="m 133.03841,-3.1845811 0.4388,8.9222444 8.19091,1.7551954 1.60893,-8.629713 z"
           id="path15" /><path
           style="fill:#6dd0d9;fill-opacity:1;stroke-width:0.264583"
           d="m 177.3571,-0.11298833 2.34026,7.89837833 4.09545,-1.3163973 2.04773,-5.1193195 -4.09545,-2.04772669 z"
           id="path16" /><path
           style="fill:#6dd0d9;fill-opacity:1;stroke-width:0.264583"
           d="m 181.16002,18.755363 -3.51039,3.656657 5.85065,3.071592 1.46266,-5.411853 z"
           id="path17" /></g><path
         style="fill:#1a2a3b;fill-opacity:1"
         d="m 72.305061,136.58172 c -1.49432,-0.53431 -2.84956,-1.73887 -3.60249,-3.20196 -0.61816,-1.20119 -0.67474,-1.65103 -0.87829,-6.98324 -0.37438,-9.80738 -0.0863,-11.51324 2.31842,-13.72986 2.22651,-2.05233 -3.46062,-1.89136 66.825219,-1.89136 52.9989,0 63.07331,0.0579 64.10598,0.36873 1.76442,0.53102 3.2075,1.78783 4.07039,3.54501 l 0.74162,1.51021 v 7.54063 c 0,7.31 -0.0186,7.58108 -0.60887,8.86354 -0.72955,1.58513 -1.92086,2.88328 -3.35988,3.66121 l -1.05834,0.57212 -63.76458,0.0557 c -53.751749,0.0469 -63.925469,-0.002 -64.789179,-0.31069 z M 193.84206,131.6538 c 2.35105,-0.50421 3.71055,-2.16559 3.70848,-4.53199 -0.001,-1.26173 -0.68631,-2.59746 -1.65962,-3.23519 -0.34515,-0.22615 -1.50204,-0.70862 -2.57087,-1.07215 -2.35541,-0.80113 -2.91227,-1.26074 -2.91227,-2.40369 0,-1.88762 2.65067,-2.62741 4.62165,-1.28984 l 0.99132,0.67274 0.86008,-0.99497 0.86007,-0.99496 -0.5577,-0.43411 c -1.71641,-1.33605 -4.31393,-1.89674 -6.08261,-1.31303 -1.18903,0.39242 -2.43343,1.40858 -2.95127,2.40998 -0.55547,1.07416 -0.49121,3.11537 0.13015,4.13443 0.66025,1.08285 1.37135,1.5378 3.84739,2.46151 2.48791,0.92814 2.77884,1.16544 2.77884,2.26662 0,1.0059 -0.65706,1.60314 -2.05152,1.86474 -0.67478,0.12659 -1.26981,-0.0274 -2.55996,-0.66255 l -1.68084,-0.82747 -0.93522,0.93521 c -0.93304,0.93303 -0.93387,0.93601 -0.35956,1.28196 0.3166,0.19071 0.9023,0.54708 1.30155,0.79195 0.59603,0.36555 2.96687,1.14338 3.69284,1.21156 0.10197,0.01 0.79006,-0.11226 1.52907,-0.27075 z M 85.368204,130.48675 v -1.19062 l -2.71198,-0.0305 c -3.17529,-0.0357 -3.21739,-0.0396 -3.31938,-0.3065 -0.0725,-0.18964 4.05003,-8.33416 5.82285,-11.50378 0.59732,-1.06795 0.69399,-1.42174 0.41747,-1.52785 -0.19791,-0.0759 -2.43925,-0.1054 -4.98075,-0.0654 l -4.62092,0.0726 -0.0814,1.12448 -0.0814,1.12448 h 2.74924 c 1.51209,0 2.82792,0.0787 2.92408,0.17484 0.0962,0.0962 -1.31275,3.06193 -3.1309,6.59061 -1.81816,3.52868 -3.30574,6.48609 -3.30574,6.57204 0,0.0859 2.32172,0.15626 5.15937,0.15626 h 5.15938 z m 10.84792,0 v -1.19062 h -2.64584 c -1.4552,0 -2.64583,-0.0546 -2.64583,-0.12141 0,-0.0668 0.93664,-1.34669 2.08143,-2.84427 2.65914,-3.4786 3.21024,-4.51775 3.21024,-6.05325 0,-2.00534 -1.7354,-3.96582 -3.86398,-4.36515 -1.41007,-0.26453 -3.26003,0.77947 -4.00738,2.2615 -0.32742,0.64929 -0.59531,1.45297 -0.59531,1.78593 0,0.52786 0.13285,0.6054 1.03731,0.6054 0.94199,0 1.05366,-0.0744 1.21516,-0.80973 0.12673,-0.57701 0.44207,-0.93573 1.09719,-1.24813 0.82581,-0.39381 0.99155,-0.39793 1.62911,-0.0406 0.91253,0.5115 1.43855,1.60577 1.20988,2.51687 -0.0978,0.38982 -1.21131,2.09226 -2.47439,3.78318 -1.99365,2.66897 -3.97284,5.49409 -4.60984,6.58014 -0.15223,0.25953 0.83457,0.33073 4.58413,0.33073 h 4.77812 z m 6.145446,-3.49408 0.0723,-4.68472 1.95478,3.26996 1.95478,3.26995 0.82334,-1.37181 c 0.45284,-0.75449 1.31373,-2.15194 1.91306,-3.10543 l 1.08971,-1.73363 0.19321,4.5202 0.1932,4.52019 h 1.01598 c 0.99931,0 1.01886,-0.0193 1.19222,-1.17534 0.0969,-0.64643 0.13377,-4.18854 0.0819,-7.87135 l -0.0944,-6.69602 -0.6613,-0.0774 c -0.59391,-0.0695 -0.91493,0.34167 -3.15036,4.0349 -1.36899,2.26174 -2.51647,4.11226 -2.54997,4.11226 -0.0335,0 -0.92567,-1.39898 -1.9826,-3.10885 -1.05693,-1.70987 -2.20293,-3.55534 -2.54667,-4.10104 -0.449,-0.71283 -0.81015,-0.99219 -1.28267,-0.99219 h -0.657706 v 7.9375 7.9375 h 1.184516 1.18452 z m 24.54621,0.0545 c 0,-2.54661 0.0893,-4.62592 0.19844,-4.62067 0.10914,0.005 1.60373,2.08884 3.32131,4.63021 3.03245,4.48687 3.14929,4.62067 4.0349,4.62067 h 0.91202 v -7.95133 -7.95132 l -1.38906,0.08 -1.38907,0.08 v 4.49792 c 0,2.55453 -0.10494,4.49791 -0.2429,4.49791 -0.13359,0 -1.62187,-2.05301 -3.30729,-4.56225 -2.91466,-4.33933 -3.10641,-4.56233 -3.92429,-4.56406 l -0.85989,-0.002 v 7.9375 7.9375 h 1.32292 1.32291 z m 23.87513,3.75898 c 0.82452,0 2.33212,-1.85612 3.18927,-3.46358 0.85072,-1.59542 0.83796,-5.36845 -0.0236,-6.98711 -2.99809,-5.63242 -10.47095,-5.9461 -13.40107,-0.56252 -0.99281,1.82413 -1.23568,4.77137 -0.56066,6.80368 0.57548,1.73261 2.29745,3.66877 3.9765,4.47113 1.14477,0.54705 1.63533,0.62339 3.47403,0.54064 1.73205,-0.0779 4.20908,-0.80224 3.34555,-0.80224 z m -5.222,-1.84905 c -2.68747,-1.09167 -3.88819,-3.34512 -3.29778,-6.1891 0.51467,-2.47915 2.41365,-4.11626 4.77468,-4.11626 1.59602,0 3.16589,0.8596 4.14186,2.26792 0.61988,0.89449 0.73124,1.32369 0.73124,2.81835 0,1.49863 -0.11909,1.95493 -0.79375,3.04137 -1.20502,1.94049 -3.71675,2.92494 -5.55625,2.17772 z m 20.2789,2.19895 c 2.07305,-0.64272 3.31417,-1.64038 4.33624,-3.48564 0.70171,-1.26688 0.78357,-1.65524 0.7727,-3.66595 -0.01,-1.79076 -0.1313,-2.47655 -0.59694,-3.36608 -0.86751,-1.65724 -1.96356,-2.78747 -3.53988,-3.65026 -1.28744,-0.70469 -1.69457,-0.78235 -4.78111,-0.91187 l -3.37383,-0.14158 3.9e-4,7.87135 4e-4,7.87136 h 2.75026 c 1.99115,0 3.21437,-0.14389 4.43177,-0.52133 z m -4.5362,-7.28388 v -5.15937 h 1.68989 c 1.47,0 1.85492,0.11189 2.95814,0.85989 1.97597,1.33975 2.83518,3.51146 2.24962,5.68607 -0.62758,2.33063 -2.66276,3.75661 -5.37629,3.76697 l -1.52136,0.006 z m 22.79558,6.61458 0.0947,-1.19062 h -3.24305 -3.24305 v -2.11667 -2.11666 h 2.24895 2.24896 v -1.19063 -1.19062 h -2.24896 -2.24895 v -2.11667 -2.11667 h 3.32178 3.32179 l -0.0806,-1.25677 -0.0806,-1.25677 h -4.49791 -4.49792 l -0.0701,7.87135 -0.0701,7.87136 h 4.47521 4.47521 z m -59.06708,-26.97754 c -0.5223,-0.19231 -7.36839,-4.670218 -15.21354,-9.950911 -7.84515,-5.280697 -15.930779,-10.718213 -17.968069,-12.083373 -3.81416,-2.555811 -8.53147,-6.867311 -11.54515,-10.551977 l -1.32506,-1.620067 -1.89927,-0.124114 c -3.53647,-0.231101 -6.66671,-2.379793 -8.29366,-5.693022 l -0.74936,-1.526061 -0.0705,-29.917811 -0.0705,-29.9178099 -1.12009,-0.6237865 c -2.72256,-1.51622287 -5.34964,-5.1504149 -6.13664,-8.4891706 -1.13102,-4.798226 0.0108,-8.895232 3.4388,-12.339158 3.101,-3.115382 5.98216,-4.179527 10.81802,-3.995594 2.34237,0.08909 2.89035,0.206793 4.51424,0.969608 2.57992,1.211904 4.40533,2.668202 5.7718,4.604699 1.79147,2.538796 2.16953,3.795777 2.16953,7.213195 0,3.221889 -0.41201,4.90466 -1.72797,7.0575015 -0.79882,1.3068143 -0.77769,1.3963619 0.48401,2.05168 0.53558,0.2781761 0.72334,0.214686 1.57406,-0.5322515 3.85042,-3.38072 9.67249,-2.1425162 11.71779,2.49207463 0.44801,1.01517447 0.54759,1.68750747 0.48216,3.25527127 l -0.0825,1.9758476 7.005369,4.4534335 7.00537,4.453433 0.1323,10.189342 c 0.11655,8.977293 0.18426,10.247688 0.56921,10.679837 0.7652,0.859021 1.10552,2.491226 0.77521,3.717924 -0.36003,1.33703 -1.83395,2.725694 -2.89305,2.725694 -0.45585,0 -1.6873,0.62113 -3.23194,1.630149 -1.37251,0.896582 -3.74563,2.401911 -5.2736,3.345176 -1.52797,0.943264 -3.28414,2.060885 -3.902599,2.483603 l -1.12449,0.768577 v 4.080183 c 0,3.645316 0.0599,4.195142 0.56221,5.158803 1.450309,2.782475 -0.63529,6.082785 -3.84248,6.080435 -2.39587,-0.0018 -4.12509,-1.640072 -4.12707,-3.910113 -0.001,-1.509072 0.56388,-2.783007 1.56219,-3.521083 0.80025,-0.591652 0.81807,-0.65274 0.81807,-2.804029 0,-1.209561 -0.0748,-2.199201 -0.16618,-2.199201 -0.0914,0 -1.49663,0.874881 -3.12274,1.944181 l -2.95656,1.944181 -0.0275,2.223006 c -0.0323,2.612213 -0.68912,4.640612 -2.10189,6.491436 -0.50695,0.664139 -0.88381,1.242982 -0.83748,1.286316 0.0463,0.04333 2.08345,1.384659 4.52693,2.98072 l 4.44269,2.901931 10.307829,-6.841315 10.30783,-6.841315 v -6.046272 c 0,-5.428108 0.0473,-6.087563 0.46302,-6.450145 1.35179,-1.179108 21.6494,-14.494806 22.09497,-14.494806 0.24441,0 8.94233,5.590922 18.64618,11.985548 l 4.03022,2.655823 0.0708,6.239209 0.0708,6.239209 2.64583,1.765089 c 1.45521,0.970798 6.06648,4.018777 10.24727,6.773286 l 7.60145,5.008198 4.17251,-2.771016 c 2.29489,-1.524058 4.27491,-2.864678 4.40005,-2.979155 0.12515,-0.114477 -0.15119,-0.758609 -0.61409,-1.431404 -1.58464,-2.303192 -1.96849,-3.489779 -1.98219,-6.127424 l -0.0125,-2.40826 -2.82809,-1.891219 c -1.55545,-1.040171 -2.8949,-1.891219 -2.97656,-1.891219 -0.0817,0 -0.14847,0.931746 -0.14847,2.070546 0,1.853754 0.0677,2.134142 0.64655,2.677949 2.9028,2.72704 1.15617,7.5241 -2.73956,7.5241 -3.21564,0 -5.21859,-3.395429 -3.72782,-6.319471 0.46027,-0.902794 0.52916,-1.560295 0.52916,-5.050039 v -4.01211 l -3.50573,-2.202811 c -1.92815,-1.211546 -4.82426,-3.071858 -6.4358,-4.134028 -1.61155,-1.06217 -3.15936,-1.931664 -3.43959,-1.932208 -0.824,-0.0016 -2.16839,-0.966103 -2.65605,-1.905539 -0.68073,-1.311333 -0.58529,-2.896949 0.25037,-4.159709 l 0.70555,-1.066167 V 24.9492 15.047159 l 3.90261,-2.558953 c 2.14643,-1.407424 5.42065,-3.5135445 7.27604,-4.6802675 l 3.37344,-2.121314 V 3.8236459 c 0,-2.5028518 0.41158,-3.72073697 1.76683,-5.2281045 1.5124,-1.6821451 3.13719,-2.4279222 5.36146,-2.4608962 1.82084,-0.026994 3.80021,0.6923292 5.32558,1.9353748 0.5894,0.4803121 0.77432,0.511059 1.38906,0.230964 0.39003,-0.1777098 0.70915,-0.3996043 0.70915,-0.4930989 0,-0.093495 -0.34615,-0.6406757 -0.76921,-1.215958 -2.43345,-3.3089741 -2.53099,-9.4376031 -0.21178,-13.3062681 1.69261,-2.823426 5.19151,-5.432823 8.52612,-6.358579 1.57945,-0.438487 5.87551,-0.366492 7.55424,0.126597 3.42357,1.005594 6.56987,3.532856 8.0606,6.474668 1.92719,3.803127 1.91324,8.615506 -0.0366,12.6477356 -0.82114,1.6980579 -3.99148,5.0090293 -5.32527,5.5615054 l -0.85373,0.3536279 -0.0716,29.8019441 -0.0716,29.801943 -0.73814,1.576337 c -0.40597,0.866985 -1.03462,1.965049 -1.39699,2.440143 -1.43372,1.879699 -4.86885,3.524145 -7.36169,3.524145 -1.0976,0 -1.18287,0.07059 -5.37521,4.449857 l -4.25992,4.449857 -11.20382,7.678342 c -23.11429,15.840898 -25.1073,17.166658 -26.61624,17.705158 -1.42539,0.50869 -22.25261,0.50011 -23.63733,-0.01 z m 7.69651,-10.196401 v -5.291668 l 1.78594,-0.0041 c 0.98226,-0.0022 1.92656,-0.09348 2.09843,-0.202784 0.17187,-0.109303 0.35047,-0.732558 0.39687,-1.385011 l 0.0844,-1.186278 1.85209,-0.06288 c 3.25216,-0.110414 3.07023,-0.328389 2.98441,3.575621 l -0.074,3.366425 -2.18281,0.07685 -2.18281,0.07685 v 3.164298 3.1643 h 3.82745 3.82745 l 0.0751,-6.510906 0.0752,-6.510907 -3.175,-2.602948 c -1.74625,-1.431622 -3.58329,-2.971106 -4.08232,-3.421075 -0.49903,-0.449969 -1.05963,-0.759682 -1.24578,-0.688251 -0.18615,0.07143 -2.12933,1.633096 -4.31819,3.470365 l -3.97975,3.34049 v 6.461616 6.461616 h 2.11667 2.11666 z m -8.99583,-5.661957 v -5.132789 l 2.63651,-1.944815 2.63651,-1.944815 0.009,-2.447395 0.009,-2.447396 h 1.5875 1.5875 v 0.926041 c 0,0.509323 0.10238,0.926042 0.2275,0.926042 0.12512,0 1.15866,-0.77415 2.29674,-1.720334 1.78753,-1.486117 2.13141,-1.675232 2.52577,-1.389062 0.25109,0.182199 1.86669,1.468679 3.59023,2.858845 1.72355,1.390165 4.32459,3.425986 5.78009,4.524045 1.4555,1.098059 2.82472,2.2114 3.04271,2.474092 0.32458,0.391146 0.38921,1.38369 0.35695,5.482014 -0.0318,4.039883 0.0277,4.978654 0.3087,4.870821 0.39085,-0.149986 3.69006,-2.342782 16.48836,-10.958868 l 8.82021,-5.937929 -1.94101,-1.301447 c -1.06755,-0.715796 -5.57241,-3.621754 -10.01079,-6.457684 -4.43839,-2.83593 -8.36745,-5.385357 -8.73125,-5.665391 l -0.66146,-0.509155 0.0727,-5.570389 c 0.04,-3.063714 0.0154,-5.570389 -0.0546,-5.570389 -0.07,0 -2.28998,1.378342 -4.93334,3.062981 -2.64336,1.68464 -5.06985,3.183148 -5.39219,3.330017 -0.53367,0.243157 -0.5843,0.448361 -0.56623,2.294831 0.0216,2.208217 -0.27726,3.024693 -1.6419,4.485548 -0.91964,0.984483 -1.01694,0.860659 2.32914,2.964093 1.23692,0.777564 3.655,2.349523 5.3735,3.493241 l 3.12455,2.079488 1.07349,-0.918865 c 2.87309,-2.45926 6.61152,-2.264272 9.35856,0.488121 1.59294,1.596037 2.11592,3.079109 1.90521,5.40284 -0.17502,1.930096 -0.92881,3.423359 -2.3362,4.628038 -2.7444,2.349102 -6.35534,2.347042 -8.97151,-0.0051 -1.29958,-1.168433 -1.91909,-2.327558 -2.23695,-4.185427 -0.15976,-0.933768 -0.35812,-1.165105 -1.68534,-1.965492 -0.82735,-0.498937 -3.94812,-2.427192 -6.93504,-4.285012 -2.98692,-1.857819 -5.61666,-3.44919 -5.84387,-3.53638 -0.25428,-0.09757 -1.47243,0.537019 -3.1682,1.650467 -1.51529,0.994946 -4.67413,2.972115 -7.01964,4.393708 l -4.26455,2.584714 -0.15796,1.333709 c -0.62379,5.266866 -7.03516,7.610287 -11.20042,4.093847 -0.46062,-0.388869 -1.16896,-1.270481 -1.5741,-1.959139 -0.62367,-1.060135 -0.73866,-1.556347 -0.75001,-3.23648 -0.0111,-1.640311 0.10622,-2.213751 0.6765,-3.307292 1.20441,-2.309508 3.80253,-3.840807 6.50486,-3.833873 1.18612,0.003 3.34969,0.975066 4.38603,1.970498 l 0.73288,0.703949 3.23587,-2.043931 c 2.57193,-1.624555 6.67375,-4.334477 8.20925,-5.423556 0.12426,-0.08813 -0.13905,-0.559855 -0.58515,-1.048264 -1.03375,-1.131816 -1.66946,-3.042558 -1.57904,-4.746126 0.0475,-0.894962 -0.0547,-1.451624 -0.31088,-1.694027 -0.65073,-0.61561 -10.36797,-6.530278 -10.50444,-6.393811 -0.0709,0.07088 -0.1074,2.347214 -0.0811,5.058517 0.0405,4.185542 -0.018,5.029984 -0.38784,5.594401 -0.23956,0.365617 -2.24066,1.836322 -4.44689,3.268233 -7.31781,4.749487 -10.06643,6.53115 -13.2056,8.559914 -1.709859,1.105045 -3.108849,2.121832 -3.108849,2.259526 0,0.289205 -0.58321,-0.111207 13.890619,9.536729 6.11188,4.074038 11.2018,7.40886 11.31094,7.41073 0.10914,0.002 0.19844,-2.306374 0.19844,-5.129407 z m -0.79375,-20.344999 c -1.01031,-0.511023 -1.42642,-1.585025 -1.05276,-2.717222 0.59888,-1.814624 2.78552,-2.375445 4.10749,-1.053473 1.12657,1.126573 0.79748,2.955529 -0.66819,3.713454 -0.93659,0.48433 -1.51476,0.498197 -2.38654,0.05724 z m 25.60508,-0.07006 c -1.77139,-0.961302 -1.71853,-3.298323 0.0958,-4.236567 1.43321,-0.74114 2.99195,0.02599 3.29091,1.619613 0.22779,1.214241 -0.0648,1.925443 -1.03577,2.517486 -0.99174,0.604723 -1.38896,0.621529 -2.35097,0.09947 z m -31.62465,11.265343 c 0.89055,-0.700513 1.08235,-2.032439 0.42643,-2.961328 -1.22064,-1.728607 -3.90135,-0.873091 -3.92345,1.252118 -0.0191,1.837339 2.04905,2.848177 3.49702,1.70921 z m 42.77635,-0.160806 c 1.24137,-1.044547 1.1131,-2.714133 -0.26321,-3.425849 -1.05238,-0.544209 -1.69141,-0.483636 -2.53278,0.240081 -0.55525,0.477608 -0.72913,0.864359 -0.72913,1.621788 0,0.757429 0.17388,1.14418 0.72913,1.621788 0.94303,0.811159 1.78394,0.793773 2.79599,-0.05781 z M 80.076541,63.938101 c 3.38511,-1.724326 3.87625,-6.099477 0.97105,-8.650281 -2.62263,-2.3027 -6.67561,-1.575494 -8.29293,1.487959 -2.44183,4.625225 2.60698,9.564018 7.32188,7.162322 z m 118.450149,0.155728 c 1.92565,-0.896575 2.8158,-2.291958 2.94622,-4.618445 0.0911,-1.624672 0.0351,-1.842023 -0.78719,-3.056867 -2.14045,-3.162293 -6.14128,-3.407153 -8.66707,-0.530444 -1.05475,1.201299 -1.34628,1.943138 -1.34628,3.425778 0,1.489562 0.29146,2.224395 1.36907,3.451725 1.73261,1.973335 4.07108,2.45228 6.48525,1.328253 z m -60.1326,-3.94683 c 0.65231,-0.873695 0.36036,-1.946457 -0.69019,-2.536117 -0.635,-0.356414 -0.80154,-0.350997 -1.65016,0.05368 -0.84143,0.40125 -0.94387,0.560986 -0.94387,1.47171 0,2.080453 2.02115,2.702468 3.28422,1.010727 z m -4.60677,-6.817423 c 1.66027,-0.865386 4.06852,-0.961871 5.76732,-0.231066 l 1.38289,0.594902 2.04711,-1.314972 c 6.6371,-4.263384 7.72599,-4.985894 7.73058,-5.12945 0.003,-0.08724 -1.09626,-0.879925 -2.44233,-1.76153 -9.76123,-6.393102 -11.43479,-7.4292 -11.72889,-7.261327 -1.26143,0.720034 -13.85854,8.944032 -13.86108,9.049178 -0.002,0.07276 1.57319,1.107633 3.49989,2.299718 1.92671,1.192085 4.15794,2.640414 4.95831,3.218509 0.80036,0.578095 1.48131,1.061269 1.51321,1.073719 0.0319,0.01245 0.54174,-0.229506 1.13299,-0.537681 z M 96.613001,45.71619 c 4.511139,-2.87123 8.870919,-5.653126 9.688399,-6.181992 1.43199,-0.926427 1.49102,-1.010549 1.61506,-2.301452 0.0708,-0.736933 0.3247,-1.556407 0.5642,-1.821053 0.33375,-0.368786 0.43546,-1.017046 0.43546,-2.775444 0,-1.261849 -0.0533,-2.29427 -0.11846,-2.29427 -0.15828,0 -3.9233,2.383468 -10.164069,6.434427 l -5.12316,3.325502 -3.21122,-2.12733 c -1.76617,-1.170031 -4.09501,-2.722038 -5.17521,-3.448903 -1.22589,-0.824905 -2.31815,-1.35449 -2.90637,-1.409159 -0.67635,-0.06286 -1.18628,-0.353717 -1.80633,-1.030301 -0.7287,-0.795154 -0.86393,-1.144812 -0.86393,-2.233836 0,-1.558237 0.64396,-2.507605 2.00576,-2.95704 1.80757,-0.596553 3.54071,0.276987 3.97389,2.002934 0.10019,0.399158 1.36335,1.358652 3.94765,2.998608 l 3.80032,2.411627 6.29921,-4.124396 c 3.464569,-2.268418 6.954059,-4.561623 7.754419,-5.096011 l 1.45521,-0.971614 0.0739,-3.343064 0.0738,-3.343065 -2.85197,-1.812418 c -1.56859,-0.99683 -4.28073,-2.764918 -6.02698,-3.929085 l -3.174999,-2.1166665 -1.19063,0.5830565 c -0.65484,0.320681 -1.39898,0.644366 -1.65364,0.7193 -0.39372,0.115851 -0.46302,0.471047 -0.46302,2.372987 v 2.236743 l 0.99218,0.32335 c 2.89111,0.942201 4.56407,3.244965 4.56407,6.282269 0,2.85659 -1.67606,5.140725 -4.47126,6.093454 -2.87983,0.981575 -6.21,-0.467449 -7.59901,-3.306484 -0.65007,-1.328688 -0.69371,-1.621265 -0.54858,-3.677747 0.0867,-1.228821 0.0715,-2.234221 -0.0337,-2.234221 -0.10528,0 -0.65134,-0.379104 -1.21346,-0.842453 -0.8826,-0.727513 -1.19855,-0.833085 -2.31574,-0.773789 -1.16679,0.06193 -1.3839,-0.02154 -2.21324,-0.85088 -1.00382,-1.003819 -1.20559,-2.171853 -0.60345,-3.493395 0.68533,-1.504142 3.28545,-1.961728 4.54006,-0.798991 0.69747,0.646391 0.82631,1.125661 0.72221,2.686541 -0.0481,0.720684 0.10914,0.927031 1.27739,1.676693 l 1.33219,0.85487 0.78547,-0.559303 c 0.43201,-0.307616 1.2091,-0.736304 1.72686,-0.95264 l 0.94139,-0.393337 v -2.377699 c 0,-2.087141 -0.0566,-2.378003 -0.46302,-2.380182 -0.78447,-0.0042 -3.14048,-1.5099005 -4.01592,-2.5665305 -0.457,-0.551574 -1.00792,-1.607508 -1.22427,-2.34652 -0.38046,-1.2995856 -0.47458,-1.3922886 -2.86967,-2.8263016 l -2.47631,-1.4826432 -1.64775,0.6655577 c -0.90627,0.3660568 -2.3195,0.7226225 -3.14051,0.7923675 -2.8128,0.238947 -2.68485,0.136039 -2.67212,2.1491976 l 0.0113,1.780897 1.70457,1.190624 1.70456,1.190625 0.004,19.7776035 0.004,19.777603 h 0.87046 c 1.30284,0 3.88061,0.737058 5.1224,1.464642 0.60394,0.353856 1.54109,1.110893 2.08256,1.682304 l 0.98448,1.03893 1.48932,-1.05604 c 0.81913,-0.580821 5.18026,-3.405227 9.69141,-6.276457 z m -14.66557,0.315011 c -1.4262,-0.747783 -2.00318,-1.734546 -2.00318,-3.425831 0,-1.343592 0.0764,-1.526139 0.9883,-2.361848 0.83665,-0.766734 1.18174,-0.905559 2.24896,-0.904722 1.59029,0.0012 2.7421,0.682131 3.36131,1.987019 1.3984,2.946908 -1.76719,6.188266 -4.59539,4.705382 z m 109.714809,4.052632 c 0.7812,-0.393446 2.34092,-0.8465 3.57188,-1.037525 l 2.18512,-0.339098 0.0458,-19.699802 0.0458,-19.6998035 1.59714,-1.190625 1.59714,-1.190624 -0.0554,-1.707415 -0.0554,-1.7074146 -2.14247,-0.305239 c -1.17836,-0.167881 -2.81462,-0.6129584 -3.63614,-0.989061 L 193.32205,1.533403 190.9566,2.9882969 c -1.98685,1.222028 -2.39463,1.590096 -2.54772,2.2996006 -0.47746,2.21276 -2.58181,4.577137 -4.7014,5.2823285 l -1.10484,0.367583 -0.0759,2.254093 -0.0759,2.254094 1.16795,0.446042 c 0.64237,0.245323 1.37957,0.679889 1.63823,0.9657 0.63597,0.70274 0.81495,0.667386 2.14696,-0.424097 1.00989,-0.827535 1.15173,-1.074047 1.15173,-2.001769 0,-1.333135 0.33866,-1.969457 1.31762,-2.475695 1.53795,-0.795305 3.59422,-0.253072 4.21608,1.111772 1.00863,2.213711 -0.80342,4.557885 -3.26319,4.221448 -0.98472,-0.134686 -1.19183,-0.04988 -2.35013,0.962336 -1.23859,1.082376 -1.26257,1.131766 -0.96213,1.981916 0.16947,0.479533 0.25934,1.637943 0.19972,2.574244 -0.0863,1.355159 -0.26947,1.931543 -0.89814,2.826029 -3.3543,4.772586 -10.82949,3.185625 -11.8653,-2.518967 -0.25941,-1.428658 0.27393,-3.66476 1.16871,-4.899962 0.51308,-0.708285 1.33139,-1.333037 2.4988,-1.907752 l 1.73588,-0.85457 v -2.344929 c 0,-2.105647 -0.05,-2.344928 -0.48976,-2.344928 -0.26937,0 -1.03231,-0.288474 -1.69542,-0.641053 l -1.20565,-0.6410535 -1.10383,0.8117645 c -0.60711,0.44647 -3.32675,2.202191 -6.04365,3.901602 l -4.93982,3.089837 -0.0688,3.42018 -0.0688,3.42018 3.5084,2.197184 c 1.92963,1.208452 5.51582,3.502837 7.96933,5.098635 l 4.46093,2.90145 3.87345,-2.518745 c 2.86748,-1.864607 3.97652,-2.737993 4.27032,-3.362954 0.23094,-0.491245 0.81985,-1.059512 1.40854,-1.359164 0.86942,-0.442552 1.15498,-0.472015 2.03102,-0.209548 1.26047,0.377645 2.38127,1.651245 2.38127,2.705898 0,1.886268 -1.24981,3.410785 -2.79619,3.410785 -0.61303,0 -2.0712,0.823316 -5.64831,3.189165 -2.65207,1.754041 -5.10284,3.317149 -5.44615,3.473574 -0.55818,0.254322 -1.16496,-0.06549 -5.73605,-3.023236 -5.74863,-3.719687 -9.87673,-6.285336 -10.11302,-6.285336 -0.087,0 -0.15448,0.982265 -0.14993,2.182812 0.007,1.848217 0.10817,2.34504 0.6601,3.241146 0.39046,0.633943 0.65239,1.460216 0.6532,2.060541 0.001,1.123379 -0.76954,0.554046 9.93014,7.332166 2.41199,1.527969 6.1356,3.921821 8.27468,5.319671 l 3.88924,2.541546 1.05834,-1.118801 c 0.58208,-0.615341 1.68237,-1.433093 2.44508,-1.817227 z m -2.55857,-4.065704 c -1.42026,-0.724209 -2.00318,-1.717312 -2.00318,-3.412759 0,-1.343592 0.0764,-1.526139 0.9883,-2.361848 0.83666,-0.766734 1.18175,-0.905559 2.24896,-0.904722 4.02437,0.0032 5.21506,4.975732 1.58592,6.623167 -1.38666,0.629468 -1.68406,0.635391 -2.82,0.05616 z M 94.309551,22.98531 c 0.53298,-0.698232 0.27917,-1.915054 -0.52397,-2.511979 -0.62643,-0.465586 -0.80733,-0.488259 -1.52472,-0.191104 -0.87261,0.361446 -1.23295,1.179659 -0.97397,2.211546 0.29881,1.190528 2.24723,1.507377 3.02266,0.491537 z m 88.622269,0.159252 c 0.94106,-0.78101 -0.0672,-2.856749 -1.38758,-2.856749 -1.21414,0 -2.16178,1.583971 -1.5173,2.536153 0.58483,0.864052 2.05461,1.026263 2.90488,0.320596 z M 94.076921,5.6150935 c 2.3609,-1.2208706 1.54795,-4.64186257 -1.10308,-4.64186257 -1.34732,0 -2.01664,0.38616577 -2.4446,1.41042647 -0.47531,1.1375845 -0.22747,2.1680095 0.7115,2.9580981 0.8894,0.748382 1.75603,0.831904 2.83618,0.273338 z m 89.207469,-0.652761 c 1.69923,-1.6992366 0.55119,-3.98910157 -1.99997,-3.98910157 -1.25493,0 -2.25372,1.02282027 -2.25372,2.30794597 0,1.28302 1.19969,2.4545536 2.51354,2.4545536 0.71573,0 1.16756,-0.200812 1.74015,-0.773398 z M 75.146061,-2.2209723 c 0.81205,-0.6387514 0.93898,-1.8990397 0.28527,-2.8323417 -0.61709,-0.881009 -2.27704,-0.820812 -3.00851,0.109102 -1.54036,1.9582562 0.76499,4.26360443 2.72324,2.7232397 z m 125.941669,0 c 0.85755,-0.6745548 0.91617,-1.7476364 0.14876,-2.7232397 -0.918,-1.16706 -2.60511,-0.840188 -3.10791,0.602151 -0.36595,1.0497759 -0.12564,1.8152631 0.71292,2.2709344 0.95757,0.5203371 1.43469,0.4885081 2.24623,-0.1498457 z M 71.345291,-8.542075 c 1.74044,-0.962872 3.85933,-0.901009 5.36958,0.15677 0.61199,0.428634 1.40049,1.221291 1.75223,1.76146 l 0.63952,0.982124 0.81569,-0.638559 c 1.0293,-0.805784 0.97342,-1.466171 -0.25041,-2.9597 -3.15871,-3.854786 -9.84103,-3.29581 -12.05501,1.0084 -0.65589,1.275125 -0.64036,1.440786 0.20306,2.16627 l 0.708,0.608992 0.81335,-1.213531 c 0.47277,-0.70537 1.31193,-1.489357 2.00399,-1.872226 z m 123.824989,2.645346 c 0,-0.285978 0.35791,-0.927599 0.79536,-1.425825 2.35018,-2.676709 6.61233,-2.293036 8.2214,0.740078 0.35179,0.663139 0.75122,1.205707 0.88761,1.205707 0.45144,0 1.47271,-1.141968 1.47271,-1.646759 0,-1.382444 -2.27085,-3.785012 -4.3156,-4.565906 -3.33802,-1.274804 -8.01768,0.736897 -8.94957,3.847257 -0.3126,1.043378 -0.29756,1.100416 0.45163,1.712849 0.94871,0.775523 1.43646,0.820548 1.43646,0.132599 z m -125.490319,-8.07045 c 2.51654,-1.253568 6.01739,-1.285587 8.54449,-0.07815 0.65485,0.312882 1.86568,1.209686 2.69074,1.992899 1.47555,1.400699 1.51094,1.416935 2.1606,0.99126 0.93136,-0.610252 1.05082,-1.131163 0.45219,-1.971856 -1.67051,-2.346028 -4.8092,-4.087969 -8.18422,-4.542177 -3.87143,-0.521013 -6.85496,0.538357 -9.93998,3.529423 l -1.84047,1.784416 0.9034,0.932074 0.9034,0.932074 1.46623,-1.441924 c 0.80643,-0.793059 2.08606,-1.750677 2.84362,-2.128042 z m 123.699179,1.626316 c 1.60489,-1.616219 2.17984,-2.016061 3.47164,-2.414322 3.91737,-1.207719 8.22459,0.279939 10.68331,3.689875 l 0.57233,0.79375 0.85838,-0.849246 c 0.81797,-0.809267 0.84044,-0.884002 0.47724,-1.5875 -0.20962,-0.40604 -0.97645,-1.333989 -1.70405,-2.06211 -4.98059,-4.984123 -13.38053,-4.169548 -17.4422,1.691438 l -0.7294,1.052521 0.88372,0.803547 c 0.48604,0.441951 0.91114,0.807037 0.94466,0.811303 0.0335,0.0043 0.92649,-0.8639 1.98437,-1.929256 z m -70.04323,46.948711 c -1.08213,-0.674365 -2.15746,-1.863847 -2.49671,-2.76174 -0.91083,-2.410719 0.39958,-5.429185 2.79071,-6.428264 1.15868,-0.484128 3.21675,-0.465137 4.18271,0.0386 0.74346,0.387703 0.82562,0.367621 2.18281,-0.5335 0.77565,-0.515002 1.41027,-0.978844 1.41027,-1.03076 0,-0.05192 -2.20338,-1.509215 -4.89641,-3.238443 -2.69302,-1.729227 -6.53279,-4.215612 -8.53281,-5.5253 l -3.6364,-2.38125 -0.13229,-4.9990625 C 114.0764,2.7834769 114.07094,2.7458544 113.41404,2.2829358 111.71962,1.088884 102.50524,-4.773738 98.465081,-7.228297 c -2.47386,-1.502965 -5.18253,-3.193938 -6.01927,-3.757718 l -1.52136,-1.025054 -0.0264,-4.818787 c -0.0145,-2.650332 -0.1038,-5.092848 -0.19843,-5.427813 -0.12177,-0.430982 -0.6234,-0.792428 -1.71592,-1.236378 -7.27286,-2.95536 -10.26441,-11.605658 -6.4734,-18.718321 1.08239,-2.03078 3.29425,-4.02804 5.75907,-5.20032 1.7152,-0.815757 2.29356,-0.953317 4.39445,-1.045203 4.18011,-0.182823 7.393129,0.942316 9.849289,3.449034 2.88621,2.945627 4.00711,5.528604 4.01615,9.254752 l 0.006,2.298702 9.23034,-6.13516 9.23034,-6.135161 0.0985,-2.788334 c 0.0896,-2.534857 0.1808,-2.955773 1.00367,-4.630208 1.77691,-3.615791 5.08896,-6.074935 9.09108,-6.749979 7.28651,-1.229029 14.08186,5.027383 13.64124,12.559349 l -0.0941,1.609172 8.93023,5.953125 c 4.91163,3.274218 9.04284,5.990741 9.18047,6.036718 0.14261,0.04764 0.18791,-0.300485 0.10532,-0.809392 -0.2087,-1.286083 0.54325,-4.92362 1.39014,-6.724776 0.90152,-1.91735 3.6869,-4.777962 5.59258,-5.743641 7.66255,-3.882911 16.75784,0.168575 18.46505,8.225236 1.04255,4.920015 -0.15405,9.129011 -3.5601,12.52251 -1.3139,1.309051 -2.24039,1.95596 -3.78934,2.645833 l -2.05023,0.913136 -2.9e-4,2.935915 c -1.6e-4,1.614754 -0.0785,4.037406 -0.17404,5.383672 l -0.17374,2.447756 -2.14136,1.401545 c -1.17775,0.77085 -3.45105,2.20429 -5.05177,3.185424 -1.60073,0.981134 -4.99402,3.1174914 -7.54063,4.7474615 -2.54661,1.62997013 -5.49077,3.51453113 -6.54257,4.1879133 l -1.91235,1.2243311 -0.072,4.9659336 -0.072,4.9659345 -1.45521,0.973711 c -1.46879,0.982798 -9.43976,6.044198 -13.61445,8.644896 -1.2433,0.774535 -2.25914,1.48891 -2.25741,1.5875 0.002,0.09859 0.7146,0.570041 1.58416,1.04767 1.51135,0.830148 1.61557,0.850553 2.36497,0.463021 0.43573,-0.225322 1.45524,-0.405397 2.2952,-0.405397 4.51321,0 6.71719,4.979085 3.71668,8.396479 -2.75397,3.136595 -8.03624,1.686134 -8.89458,-2.442364 -0.13854,-0.666357 -0.66092,-1.100855 -3.27625,-2.72504 l -3.11143,-1.93228 -2.7451,1.760302 c -2.66658,1.709954 -2.75386,1.796845 -3.0516,3.037954 -0.34825,1.451658 -1.68391,3.012515 -3.0754,3.593917 -1.27096,0.531042 -3.50546,0.465237 -4.46291,-0.131432 z m 14.8822,-14.164094 c 0.69156,-0.496316 4.58817,-3.035578 8.65914,-5.642804 l 7.40175,-4.740411 0.0269,-4.8191415 c 0.0212,-3.7966497 0.10682,-4.89533477 0.40345,-5.17825287 0.35217,-0.3358865 10.7758,-7.16873563 18.88021,-12.37626563 3.57853,-2.299403 3.589,-2.309071 3.58039,-3.307292 l -0.009,-1.001146 -11.40018,-7.540625 c -6.27009,-4.147343 -12.43783,-8.212776 -13.70608,-9.034295 l -2.30591,-1.493671 -1.69726,1.082097 c -0.9335,0.595154 -3.18554,2.018827 -5.00455,3.163718 l -3.30729,2.081621 -0.16578,1.24037 c -0.12246,0.916187 -0.0536,1.413247 0.26363,1.901827 0.71948,1.108278 1.09279,2.135882 1.09236,3.006939 -9.1e-4,1.840012 -1.62447,3.656717 -3.59898,4.027137 -2.03979,0.382667 -4.58733,-1.869963 -4.59834,-4.066012 -0.005,-1.037661 0.53875,-2.431299 1.14529,-2.934315 0.30584,-0.253645 0.43786,-0.782479 0.43786,-1.754033 v -1.390907 l -4.92739,-3.21777 c -2.71007,-1.769773 -5.00822,-3.242646 -5.10702,-3.27305 -0.0988,-0.0304 -6.45396,4.098218 -14.12261,9.174715 -13.815189,9.1454 -13.942979,9.238139 -13.942979,10.118753 0,0.979426 0.10818,1.061377 7.540619,5.712324 3.40719,2.132091 13.50758,8.7052818 14.89893,9.69601163 l 0.84378,0.6008219 0.003,4.94291997 0.003,4.9429215 4.95808,3.110651 c 2.72694,1.710859 6.56542,4.175454 8.52995,5.476878 1.96453,1.301424 3.6609,2.372177 3.7697,2.379452 0.10881,0.0073 0.76365,-0.392851 1.45521,-0.889166 z M 134.40408,9.7601015 c -2.47311,-0.883978 -4.45339,-2.949891 -5.11687,-5.3381546 -0.33252,-1.196895 -0.33735,-3.74725517 -0.009,-4.61156017 0.22332,-0.5873714 0.13904,-0.7629031 -0.69727,-1.45226583 -0.7823,-0.6448385 -1.0655,-0.7407195 -1.59417,-0.5397231 -1.06658,0.4055139 -1.84854,0.2799173 -2.69578,-0.4329909 -0.96084,-0.8084922 -1.29359,-2.1553439 -0.81686,-3.3062889 0.4757,-1.148433 1.23283,-1.572553 2.80729,-1.572553 1.21547,0 1.45331,0.09566 2.07508,0.83459 0.54533,0.648086 0.6855,1.066764 0.62724,1.873545 -0.0609,0.8430597 0.0481,1.1335714 0.57803,1.5407757 0.89164,0.6851639 1.07862,0.6498567 2.09121,-0.3948657 2.6503,-2.734416 7.38634,-2.820191 10.38417,-0.1880696 0.52114,0.4575674 1.02277,0.8319408 1.11474,0.8319408 0.092,0 0.5808,-0.2678906 1.08628,-0.5953124 0.76114,-0.4930247 0.91962,-0.7556768 0.92233,-1.5286288 0.006,-1.722018 1.48722,-2.865785 3.2765,-2.530114 1.42976,0.268224 2.28302,1.310283 2.28302,2.788161 0,2.0046058 -1.50864,3.1900382 -3.39644,2.6687911 -0.83661,-0.2309977 -1.08645,-0.1788985 -1.98102,0.4130993 -0.97918,0.6479899 -1.01393,0.7196609 -0.79967,1.64894813 0.38707,1.67870097 0.21932,4.31091237 -0.35789,5.61578797 -1.63944,3.706217 -6.01813,5.6199355 -9.78118,4.274888 z m 3.8856,-4.718625 c 1.22218,-0.4890196 1.84727,-1.4545516 1.84727,-2.8533408 0,-0.7146729 -0.2339,-1.1739244 -1.01736,-1.99751397 -0.87513,-0.919947 -1.1735,-1.069474 -2.13407,-1.069474 -1.40526,0 -1.9505,0.2920072 -2.64575,1.4169454 -1.07649,1.74178707 -0.45725,3.74435677 1.40912,4.55697137 1.06159,0.462219 1.26224,0.457987 2.54079,-0.05359 z M 111.95883,-8.645126 c -1.48007,-0.690694 -3.14519,-2.383197 -3.77637,-3.838466 -0.54975,-1.267541 -0.52347,-4.346368 0.0483,-5.665215 0.57899,-1.335364 2.13836,-3.023616 3.37598,-3.655003 2.34709,-1.197393 5.53195,-0.863051 7.86283,0.825429 l 1.0667,0.772715 2.05,-1.27212 c 1.6239,-1.007712 2.09451,-1.443924 2.26418,-2.098695 0.40449,-1.56098 2.39765,-2.177454 3.68162,-1.138706 0.57117,0.462087 0.63219,0.739795 0.71307,3.245269 l 0.0884,2.739939 3.87469,2.467824 c 3.53673,2.252571 3.923,2.436835 4.42856,2.112543 0.30463,-0.195404 1.94426,-1.226551 3.64363,-2.291437 l 3.08977,-1.936155 v -2.745444 c 0,-2.497541 0.0559,-2.810485 0.61958,-3.465754 0.43173,-0.501917 0.87359,-0.720309 1.45737,-0.720309 1.00602,0 2.15638,0.977595 2.15638,1.832527 0,0.403564 0.31782,0.785054 0.99219,1.190955 0.5457,0.328457 1.62448,1.009377 2.39728,1.513154 l 1.40509,0.915958 0.84387,-0.800496 c 1.16832,-1.10828 2.27299,-1.614703 3.95283,-1.812135 4.35347,-0.511665 7.96533,2.801089 7.96173,7.302397 -0.002,2.866616 -1.3307,4.926494 -4.13274,6.408388 -1.5677,0.8291 -4.6238,0.835375 -6.17813,0.01269 -1.97549,-1.045601 -3.37689,-2.976998 -3.90391,-5.38031 -0.10812,-0.49303 -0.50934,-0.847846 -1.46476,-1.295339 l -1.31585,-0.616312 -4.44599,2.914645 c -6.55289,4.295867 -7.42646,4.835408 -7.82899,4.835408 -0.20115,0 -1.01054,-0.44798 -1.79865,-0.995511 -0.78811,-0.547531 -3.4886,-2.336669 -6.00109,-3.975862 -5.01287,-3.270484 -4.66697,-3.178725 -6.5864,-1.747207 -0.59971,0.447268 -0.88622,0.921739 -1.01427,1.679661 -0.33958,2.009975 -2.41082,4.258495 -4.60554,4.999745 -1.4655,0.494961 -3.45369,0.366185 -4.92146,-0.318767 z m 4.56406,-5.090732 c 0.80011,-0.895453 0.7841,-2.239844 -0.0381,-3.195663 -0.50631,-0.588621 -0.85697,-0.736345 -1.74787,-0.736345 -2.59786,0 -3.34301,3.454443 -0.97136,4.50307 1.06472,0.470766 1.99936,0.277194 2.75729,-0.571062 z m 44.23126,0.0012 c 2.02989,-1.708041 -0.14355,-4.841009 -2.64078,-3.806623 -0.9545,0.395367 -1.26344,0.906026 -1.35304,2.236495 -0.13608,2.020562 2.31385,2.983727 3.99382,1.570128 z m -60.16468,-11.498009 c 2.05969,-1.382181 2.82006,-2.12928 2.33381,-2.293075 -0.52386,-0.176459 -2.73841,-1.986841 -2.73841,-2.238626 0,-0.131851 0.25868,-0.741002 0.57485,-1.353668 0.80638,-1.562602 0.99098,-5.03176 0.35618,-6.693938 -0.68117,-1.783632 -2.840099,-3.861486 -4.768279,-4.589232 -2.85414,-1.077221 -6.4117,-0.337313 -8.38554,1.74404 -2.6469,2.791057 -2.59382,7.987665 0.10918,10.690668 0.78282,0.782816 2.5649,1.835565 3.10724,1.835565 0.17006,0 0.27512,-0.909319 0.27512,-2.38125 0,-1.309688 0.0637,-2.38125 0.1416,-2.38125 0.0779,0 0.43349,0.19125 0.79024,0.425001 0.63998,0.419335 2.1221,0.420004 3.06397,0.0014 0.35487,-0.157721 0.45186,0.07873 0.59532,1.4512 0.0942,0.901792 0.17137,3.181283 0.17137,5.065534 v 3.425913 l 1.25677,-0.730111 c 0.69123,-0.401561 2.09368,-1.291731 3.116579,-1.978155 z m -11.923559,-7.726912 c -0.72536,-1.558014 -0.78678,-2.200296 -0.34987,-3.658583 1.21737,-4.063211 6.59673,-5.296512 9.53689,-2.186481 0.39093,0.41351 0.83741,1.087008 0.99219,1.496664 0.51633,1.36659 0.2543,4.290334 -0.48827,5.448019 -0.19437,0.303039 -0.43606,0.226813 -1.30351,-0.411118 -0.79423,-0.584085 -1.00337,-0.880386 -0.82282,-1.165765 0.63638,-1.005872 -2.5e-4,-3.38053 -1.05808,-3.946663 -0.65501,-0.350554 -2.28471,-0.350554 -2.93973,0 -1.0852,0.580783 -1.63397,2.593348 -1.01996,3.740633 0.23997,0.448386 0.16514,0.667237 -0.44638,1.305523 -0.40407,0.421758 -0.89646,0.766834 -1.09421,0.766834 -0.19775,0 -0.65057,-0.625078 -1.00625,-1.389063 z m 88.777289,5.041326 v -5.343568 l -0.93758,0.90874 c -1.05737,1.024841 -1.21694,0.938764 -1.73745,-0.937227 -1.0412,-3.752605 1.49663,-7.276041 5.24073,-7.276041 4.06511,0 6.79438,4.171207 5.12896,7.838712 -0.70314,1.548398 -1.0441,1.66657 -1.88888,0.654659 -0.60875,-0.729189 -0.68404,-0.99307 -0.50713,-1.777457 0.61738,-2.737366 -1.78921,-4.676139 -4.23471,-3.411524 -0.85613,0.442723 -1.1361,1.088992 -1.1361,2.622511 0,2.00494 2.57793,3.296683 4.24662,2.127887 l 0.58804,-0.411878 v 2.414083 c 0,2.381643 0.008,2.411609 0.59531,2.230012 3.15155,-0.974456 5.03695,-3.573585 5.07441,-6.995339 0.034,-3.101958 -1.70512,-5.654393 -4.82606,-7.083207 -2.7319,-1.250707 -7.03312,-0.394851 -8.84655,1.760285 -2.0426,2.427494 -2.51304,5.741462 -1.27738,8.998454 l 0.6416,1.691156 -1.04378,0.973626 c -0.57408,0.535495 -1.27952,1.114988 -1.56765,1.287764 -0.49821,0.298758 -0.47205,0.360447 0.53448,1.260079 1.01461,0.906869 5.34293,3.761614 5.75468,3.795508 0.10914,0.009 0.19844,-2.388272 0.19844,-5.327235 z m -42.59791,-9.08277 c 0,-2.763735 -0.005,-2.786663 -0.69602,-3.049298 -0.38281,-0.145543 -1.02627,-0.499784 -1.42991,-0.787201 -0.40364,-0.287417 -0.78963,-0.522577 -0.85776,-0.522577 -0.0681,0 -0.86859,0.595312 -1.77881,1.322917 -0.91023,0.727604 -1.75884,1.322916 -1.88581,1.322916 -0.49689,0 -0.1706,0.431558 0.89927,1.189412 1.50877,1.06876 5.25015,3.308504 5.52668,3.308504 0.1223,0 0.22236,-1.253103 0.22236,-2.784673 z m 7.2401,1.303222 c 3.00432,-1.798775 4.15383,-2.722733 3.64694,-2.931343 -0.19676,-0.08098 -1.12818,-0.730374 -2.06983,-1.443105 l -1.71209,-1.295874 -0.65457,0.514885 c -0.36001,0.283187 -1.00617,0.592109 -1.4359,0.686493 l -0.78132,0.171608 v 2.889394 c 0,1.761771 0.1039,2.889393 0.26623,2.889393 0.14642,0 1.37967,-0.666653 2.74054,-1.481451 z m -2.5126,-8.737121 c 2.08649,-1.039743 2.81312,-2.307016 2.81312,-4.906218 0,-1.823396 -0.0802,-2.143602 -0.79539,-3.174999 -0.97451,-1.405414 -3.16539,-2.604988 -4.74216,-2.596481 -3.51846,0.01898 -6.24245,3.636433 -5.34462,7.097656 0.9586,3.695481 4.59751,5.309981 8.06905,3.580042 z m -3.40459,-1.85738 c -1.61472,-0.543455 -2.38125,-1.510866 -2.38125,-3.005296 0,-2.397774 2.23291,-3.881078 4.39962,-2.922637 1.21544,0.537644 1.95104,1.610583 1.94939,2.843352 -0.001,0.863375 -0.8188,2.316547 -1.5062,2.676928 -0.66466,0.348455 -1.98686,0.567421 -2.46156,0.407653 z"
         id="path1"
         sodipodi:nodetypes="csssscscsssccccscsssscccsssssssscssscsccscscccccsssssccccssssssssssccsssccccccsscccscccssssssccccccscsscccccsssccccccssscssscssssssssssscssscccssccssscccccccccccccccccccccccccccccssscsscccsscsssssscsccccssssssscscccsssscsscscccscsscccsscsssscssssssscssssscccsscsssssscsssssscccsssscsscccccsccsscccccccccssssccccccccccccccsssssssssscsssccssssssscssssssssssscssscscscsssscscssssscccsssssscsssccssssssssssssscssssssssssssssscscsscsssscsssssscsssssssscsscccsscssscsssscsssssscscsscssssscssccccccssscsccssscsscscccccccsscssscccsssssssssssssscssscsscccsscsssssssssssscsscsccssscsssssssssssssssssssssssssssssssssscsssscsssssssssssssssssscccsssssscsssscscscssssssscssssccsssssscccccssccsssssssscsscsssscccsscsssssscssscccscsssccsscsscscsscsscsssssscccssccccscsssssssssssscssssssccsssssssscscsscsssccssscsssssscsscsssscssssssscccsssccssssssssssssssssscscssssssssssssssssscssssssssscsscssscsssssscsssssssssscsscsssssssssssscss" /></g></g></svg>
